<svg xmlns:xlink="http://www.w3.org/1999/xlink" viewBox="50.91 172.59 400.2 119.93" xml:space="preserve" y="0px" x="0px" xmlns="http://www.w3.org/2000/svg">      <path d="M259.663 280.218c1.679 2.149 3.068 4.198 4.405 6.17-5.15 7.113-19.917 8.376-27.667 2.027-5.011-4.104-9.964-7.701-16.064-10.373-10.374-4.544-13.815-19.012-8.415-30.989 5.052-11.204 13.992-17.29 26.073-17.976 5.68-.323 11.983-.183 17.088 1.944 13.149 5.477 16.949 22.974 8.752 35.808-4.294 6.724-10.302 11.09-17.884 13.64 3.806 3.688 4.61 3.65 13.712-.251m-31.093-36.206c-1.176 1.4-2.518 2.695-3.501 4.22-5.657 8.77-2.565 19.711 6.235 22.307 8.057 2.377 19.877-2.96 22.392-10.952 4.206-13.367-1.108-21.336-15.19-20.18-3.232.266-6.29 2.66-9.936 4.605z" opacity="1" fill="#F2BB13"></path>      <path d="M401.77 229.006c1.314.151 2.673.596 3.936.404 4.946-.753 8.41.399 11.032 5.304 4.43 8.288 9.668 16.145 15.434 25.609 1.072-4.423 1.874-7.35 2.48-10.317 1.133-5.532 2.338-11.06 3.145-16.644.455-3.148 1.729-4.342 4.894-4.031 2.579.253 5.203.051 8.42.051-1.61 8.489-3.013 16.26-4.573 24-1.444 7.167-2.92 14.332-4.675 21.426-.53 2.142-1.744 5.486-3.151 5.77-3.557.718-7.74 1.1-10.24-2.96-4.175-6.785-8.347-13.572-12.545-20.343-1.202-1.94-2.485-3.828-4.446-6.836-1.83 8.16-3.376 15.16-4.973 22.15-2.043 8.949-4.064 10.035-14.162 7.303 3.513-16.955 7.035-33.946 10.037-50.907-.519.03-.613.02-.613.02z" opacity="1" fill="#F2BB13"></path>      <path d="M202.512 263.583c-9.312 19.288-30.111 21.195-43.65 15.367-7.184-3.093-11.482-8.946-12.164-17.421-1.54-19.154 13.592-32.679 30.486-32.574 5.06.031 10.588.126 15.08 2.081 12.328 5.366 16.024 17.92 10.248 32.547m-10.63-12.768c-1.021-7.439-4.12-10.567-11.399-11.508-7.457-.965-14.762 2.649-18.504 9.152-3.1 5.388-3.073 14.428.053 18.049 3.762 4.356 11.357 5.928 17.507 3.623 8.078-3.026 12.153-9.11 12.342-19.316zM387.962 241.844c3.21 11.017 1.492 21.297-6.261 29.69-8.97 9.707-20.54 11.965-33.272 9.236-6.136-1.315-11.024-4.325-14.586-10.387-1.364-4.962-2.474-9.27-3.585-13.576 1.977-10.888 6.23-20.59 16.847-25.39 10.977-4.963 22.315-5.698 33.556 1.308-3.17 3.1-6.645 5.67-10.516 8.126-1.807-.552-3.19-1.16-4.634-1.396-11.705-1.909-22.69 7.276-21.095 19.247-.215 3.034-1.907 6.37 2.755 7.655 6.53 4.609 13.021 5.305 19.783 1.4 6.855-3.959 9.718-9.993 9.358-18.066 3.981-2.811 7.816-5.329 11.65-7.847z" opacity="1" fill="#F2BB13"></path>      <path d="M81.93 259.805l-5.976.001c-9.578.006-9.578.007-9.563 11.012H92.965c.309 9.609-.61 10.352-9.187 10.137-8.979-.226-17.969.015-26.954.013-1.766 0-3.532-.181-5.914-.313 2.138-10.812 4.143-21.024 6.183-31.228 1.075-5.381 2.366-10.724 3.255-16.135.457-2.779 1.514-4.107 4.457-4.09 10.986.063 21.974-.082 32.958.083 1.112.017 3.236 1.788 3.124 2.44-.567 3.277-.472 7.45-5.415 7.627-4.822.173-9.651.21-14.478.199-9.375-.02-9.375-.052-10.604 10.236h22.628c.675 8.871-.624 10.008-11.089 10.018z" opacity="1" fill="#F2BB13"></path>      <path d="M283.288 279.276c-8.485-5.273-9.964-13.153-8.188-22.191 1.57-7.988 3.06-16 4.997-23.9.372-1.515 2.486-3.294 4.09-3.66 2.663-.606 5.563-.164 9.214-.164-.978 5.672-1.802 10.82-2.769 15.94-.771 4.082-1.783 8.119-2.571 12.198-1.445 7.476.322 11.715 5.366 13.148 6.562 1.864 13.025-1.062 15.324-7.664 1.68-4.827 2.377-9.997 3.52-15.013 1.144-5.022 2.573-10 3.345-15.078.472-3.11 1.758-3.839 4.607-3.555 2.596.258 5.239.054 8.717.054-2.762 12.658-5.368 24.603-7.885 37.153-2.933 2.204-5.82 4.168-9.001 5.326-7.345 2.674-14.832 4.956-22.593 7.383-2.279-.001-4.226.01-6.173.023z" opacity="1" fill="#F2BB13"></path>      <path d="M120.676 246.159c-1.706 8.194-3.323 15.975-5.084 24.446h24.983c1.222 7.924-.485 10.07-7.53 10.106-9.497.047-18.994.016-28.489.168-2.91.046-3.872-.733-3.218-3.805 3.152-14.808 6.06-29.668 9.275-44.461.273-1.257 2.052-2.88 3.331-3.085 2.89-.463 5.904-.145 9.824-.145a7917.154 7917.154 0 01-3.092 16.776z" opacity="1" fill="#F2BB13"></path>      <path d="M290.802 280.18l22.407-6.154c-.598 1.148-1.054 2.025-1.405 3.028-4.72 1.587-9.525 3.128-14.387 4.46-1.707.469-3.554.423-5.824.399-.588-.72-.69-1.226-.791-1.733z" opacity="1" fill="#F2BB13"></path>      <path d="M370.54 240.966c3.476-2.571 6.952-5.142 10.442-7.909 5.605-2.744 11.13-5.448 16.815-7.762 2.326-.947 4.312-.264 3.75 3.37.223.34.317.35.302.304-4.431 4.094-8.847 8.233-13.575 12.623-4.146 2.77-7.98 5.288-12.322 8.147-3.206 1.964-5.86 3.665-8.611 5.194-6.788 3.775-13.62 7.471-20.434 11.2-4.398-1.062-2.706-4.397-2.21-7.696 2.673-1.974 4.934-3.313 7.113-4.776 6.261-4.205 12.49-8.46 18.73-12.695z" opacity="1" fill="#E3EDA4"></path>      <path d="M403.683 202.224a665.118 665.118 0 01-7.562-2.991l50.12-26.64 1.04.827-12.543 46.472-15.428-10.062-3.644 9.12-1.416.48c-1.337-3.515-3.192-6.934-3.87-10.572-.73-3.918-2.595-5.926-6.697-6.634m29.604-10.411l-12.762 15.783 12.895 9.056 9.201-34.45-1.166-.488c-2.571 3.183-5.142 6.365-8.168 10.099m-18.704 8.337c-4.39 3.317-4.175 7.074.083 12.535l16.402-22.516c-7.084.559-10.718 6.294-16.485 9.98m6.706-11.233l-18.95 9.317c2.558 1.624 5.86 3.33 7.618 2.327 4.8-2.739 9.054-6.495 13.29-10.121 1.357-1.16 1.321-2.717-1.958-1.523z" opacity="1" fill="#E3EDA4"></path>      <path d="M289.793 279.267c7.429-2.441 14.916-4.723 22.26-7.397 3.182-1.158 6.07-3.122 9.078-4.742 2.878-.758 6.743-.628 8.384-2.475 1.632-1.835 1.032-5.658 1.396-8.61.014-.112-.129-.243-.199-.364-.206.156-.412.313-.536.798 1.193 4.637 2.303 8.944 3.543 13.552-6.846 2.566-13.822 4.832-21.41 6.998-.154-.976.302-1.853.9-3.001-7.745 2.127-15.076 4.14-22.582 6.01a10.485 10.485 0 01-.834-.77m25.6-5.784s.072-.03 0 0z" opacity="1" fill="#E3EDA4"></path>            <path d="M290.627 280.037c.276.65.378 1.156.58 1.903-5.07.718-10.241 1.213-15.416 1.662-1.087.094-2.19.013-4.376.013 4.183-1.6 7.464-2.855 11.309-4.224 2.511-.127 4.458-.14 6.737-.138.542.232.762.441 1.166.784z" opacity="1" fill="#E3EDA4"></path>    </svg>